<svg width="200" height="200" viewBox="0 0 200 200" fill="none" xmlns="http://www.w3.org/2000/svg">
<path d="M48.041 180.791H152.701C163.219 180.791 171.74 172.264 171.74 161.75V60.7617C171.74 50.2477 163.219 41.7246 152.701 41.7246H48.041C37.527 41.7246 29 50.2477 29 60.7617V161.75C29 172.264 37.527 180.791 48.041 180.791Z" fill="url(#paint0_linear_2866_190)"/>
<path d="M29 145.36V161.751C29 172.265 37.527 180.792 48.039 180.792H152.701C163.215 180.792 171.736 172.265 171.736 161.751V145.36C151.963 141.577 127.216 139.333 100.373 139.333C73.521 139.332 48.779 141.576 29 145.36Z" fill="url(#paint1_linear_2866_190)"/>
<path d="M73.837 29.8149V41.8989H86.157V29.8149H73.837ZM123.013 29.8149V41.8989H135.337V29.8149H123.013ZM73.837 77.0547V89.1431H86.157V77.0547H73.837ZM123.013 77.0547V89.1431H135.337V77.0547H123.013ZM73.837 124.873V136.959H86.157V124.873H73.837ZM123.013 124.873V136.959H135.337V124.873H123.013ZM53.017 19V60.6929H59.311V25.062H100.687V60.6929H108.488V25.062H149.861V60.6929H159.118V66.377H149.861L108.488 66.4038L100.687 66.377L59.311 66.4038L53.017 66.377V108.297H59.311V72.3047H100.687V108.297H108.488V72.3047H149.861V108.297H159.118V113.981H53.017V159.346H59.311V120.121H100.687V159.346H108.488V120.121H149.861V159.346H159.118V165.032H45.923V113.981V66.377V19H53.017Z" fill="#39DBDB"/>
<path d="M45.923 142.662V165.029H159.117V159.345H149.86V142.048C137.143 140.573 123.186 139.648 108.487 139.398V159.345H100.686V139.331H100.372C85.923 139.331 72.09 139.979 59.31 141.167V159.345H53.016V141.806C50.605 142.076 48.242 142.358 45.923 142.662Z" fill="url(#paint2_linear_2866_190)"/>
<defs>
<linearGradient id="paint0_linear_2866_190" x1="28.6795" y1="138.956" x2="175.855" y2="82.0943" gradientUnits="userSpaceOnUse">
<stop offset="0.2151" stop-color="#4835EA"/>
<stop offset="1" stop-color="#9868F8"/>
</linearGradient>
<linearGradient id="paint1_linear_2866_190" x1="30.1646" y1="135.983" x2="170.412" y2="184.616" gradientUnits="userSpaceOnUse">
<stop stop-color="#3129B2"/>
<stop offset="1" stop-color="#2A9CE2"/>
</linearGradient>
<linearGradient id="paint2_linear_2866_190" x1="56.3086" y1="174.383" x2="149.965" y2="132.761" gradientUnits="userSpaceOnUse">
<stop stop-color="#228ED2"/>
<stop offset="0.4784" stop-color="#39DBDB"/>
<stop offset="1" stop-color="#39DBDB"/>
</linearGradient>
</defs>
</svg>
